<?xml version="1.0" encoding="UTF-8"?>
<svg xmlns="http://www.w3.org/2000/svg" 
     version="1.1" 
     width="7000" 
     height="80"
     viewBox="0 0 500 14"
     preserveAspectRatio="none">
<path d="M0 0 C290.4 0 580.8 0 880 0 C880 4.62 880 9.24 880 14 C589.6 14 299.2 14 0 14 C0 9.38 0 4.76 0 0 Z " fill="#33BA9A" transform="translate(0,0)"/>
<path d="M0 0 C288.42 0 576.84 0 874 0 C874 0.66 874 1.32 874 2 C870.77271354 3.07576215 868.45967178 3.12513659 865.06521511 3.12534916 C863.18994611 3.12910444 863.18994611 3.12910444 861.27679288 3.13293558 C859.87898137 3.13065854 858.48116999 3.12829034 857.08335876 3.12584114 C855.6004583 3.12688352 854.11755809 3.1283642 852.63465846 3.13024551 C848.53128898 3.13416315 844.42794283 3.13179729 840.32457371 3.12846755 C835.87119896 3.12594313 831.41782793 3.12918587 826.9644537 3.13171089 C819.14993385 3.1353329 811.3354209 3.13520669 803.52090073 3.13266373 C791.90073374 3.12889256 780.28057261 3.13080908 768.66040567 3.13387203 C747.91086739 3.13914748 727.16133219 3.13867753 706.41179362 3.13579312 C688.25392938 3.13328126 670.09606628 3.13261914 651.9382019 3.13381577 C650.13414079 3.13393034 650.13414079 3.13393034 648.29363399 3.13404724 C643.41191139 3.13435855 638.53018879 3.13467695 633.6484662 3.135007 C587.81922282 3.13806857 541.98998141 3.13528846 496.16073833 3.1299101 C455.41086878 3.12516421 414.66100234 3.12558883 373.91113281 3.13037109 C328.16770791 3.13572139 282.42428474 3.13785148 236.68085957 3.13475883 C231.80783908 3.13443809 226.93481859 3.13412526 222.0617981 3.13381577 C220.86186525 3.13373669 219.6619324 3.13365761 218.42563795 3.13357614 C200.27560997 3.13243687 182.12558323 3.13377227 163.97555542 3.13629532 C143.34589753 3.1391487 122.7162432 3.13845234 102.08658576 3.13301457 C90.52947317 3.13006904 78.97236828 3.12989989 67.41525589 3.13366075 C59.70788594 3.13589303 52.00052221 3.13452597 44.29315319 3.13015598 C39.89356393 3.1277636 35.49399005 3.12699186 31.09440124 3.13056196 C27.09882199 3.13377137 23.10327188 3.13245036 19.10769479 3.1273813 C17.66468229 3.12636696 16.22166743 3.12705885 14.7786568 3.12958724 C12.83070157 3.13276047 10.8827388 3.12925 8.93478489 3.12534916 C7.8527946 3.1252814 6.7708043 3.12521365 5.65602642 3.12514383 C3 3 3 3 0 2 C0 1.34 0 0.68 0 0 Z " fill="#38C0AC" transform="translate(3,0)"/>
<path d="M0 0 C1.98 0 3.96 0 6 0 C6 0.99 6 1.98 6 3 C4.02 3 2.04 3 0 3 C0 2.01 0 1.02 0 0 Z " fill="#06774E" transform="translate(874,11)"/>
<path d="M0 0 C0.99 0 1.98 0 3 0 C3 1.98 3 3.96 3 6 C2.01 6 1.02 6 0 6 C0 4.02 0 2.04 0 0 Z " fill="#067852" transform="translate(0,8)"/>
</svg>
